<svg xmlns="http://www.w3.org/2000/svg" viewBox="0 0 512 512">
  <path fill="#6950e8" d="M48.048 352h351.904c42.2 0 76.048-32.992 76.048-73.648V128c0-40.656-33.848-73.648-76.048-73.648H48.048C5.848 54.352-28 87.344-28 128v150.352C-28 319.008 5.848 352 48.048 352zm-20.48-224c0-10.976 9.504-19.648 20.48-19.648h351.904c10.976 0 20.48 8.672 20.48 19.648v150.352c0 10.976-9.504 19.648-20.48 19.648H48.048c-10.976 0-20.48-8.672-20.48-19.648V128zm411.904 288H48.048c-42.2 0-76.048-32.992-76.048-73.648V304h54v38.352C26 353.328 35.504 362 46.48 362h353.472c10.976 0 20.48-8.672 20.48-19.648V304h54v38.352C474.432 383.008 440.584 416 398.384 416z"/>
</svg>